<?xml version="1.0" encoding="UTF-8" standalone="no"?>
<svg viewBox="0 0 800 600" xmlns="http://www.w3.org/2000/svg">
    <!-- Background elements -->
    <rect x="0" y="0" width="800" height="600" fill="#E0FFFF" opacity="0.1"/>
    
    <!-- Desk -->
    <rect x="100" y="350" width="600" height="20" fill="#8B4513"/>
    
    <!-- Laptop -->
    <rect x="300" y="250" width="200" height="120" fill="#A9A9A9"/>
    <rect x="320" y="270" width="160" height="80" fill="#87CEEB"/>
    
    <!-- People -->
    <!-- Person 1 -->
    <circle cx="250" y="200" r="40" fill="#FFB6C1"/>
    <rect x="230" y="240" width="40" height="60" fill="#4169E1"/>
    
    <!-- Person 2 -->
    <circle cx="400" y="200" r="40" fill="#98FB98"/>
    <rect x="380" y="240" width="40" height="60" fill="#32CD32"/>
    
    <!-- Person 3 -->
    <circle cx="550" y="200" r="40" fill="#DDA0DD"/>
    <rect x="530" y="240" width="40" height="60" fill="#8B008B"/>
    
    <!-- Connection lines -->
    <line x1="290" y1="200" x2="360" y2="200" stroke="#4B0082" stroke-width="3"/>
    <line x1="440" y1="200" x2="510" y2="200" stroke="#4B0082" stroke-width="3"/>
    
    <!-- Task cards -->
    <rect x="150" y="100" width="100" height="60" fill="#FFD700" rx="10"/>
    <rect x="350" y="80" width="100" height="60" fill="#98FB98" rx="10"/>
    <rect x="550" y="100" width="100" height="60" fill="#87CEEB" rx="10"/>
</svg>
